<svg xmlns="http://www.w3.org/2000/svg" xmlns:xlink="http://www.w3.org/1999/xlink" contentStyleType="text/css" data-diagram-type="CLASS" height="616px" preserveAspectRatio="none" style="width:683px;height:616px;background:#FFFFFF;" version="1.1" viewBox="0 0 683 616" width="683px" zoomAndPan="magnify"><?plantuml 1.2026.3beta6?><defs/><g><!--class List--><g class="entity" data-qualified-name="List" data-source-line="3" id="ent0002"><rect fill="#F1F1F1" height="162.0781" rx="2.5" ry="2.5" style="stroke:#181818;stroke-width:0.5;" width="250.1709" x="7" y="314.26"/><ellipse cx="109.8081" cy="330.26" fill="#B4A7E5" rx="11" ry="11" style="stroke:#181818;stroke-width:1;"/><path d="M105.73,326.0256 L105.73,323.8694 L113.1206,323.8694 L113.1206,326.0256 L110.6519,326.0256 L110.6519,334.1038 L113.1206,334.1038 L113.1206,336.26 L105.73,336.26 L105.73,334.1038 L108.1987,334.1038 L108.1987,326.0256 L105.73,326.0256 Z " fill="#000000"/><text fill="#000000" font-family="sans-serif" font-size="14" font-style="italic" lengthAdjust="spacing" textLength="24.4727" x="130.3081" y="335.1067">List</text><rect fill="#FFFFFF" height="15.9688" style="stroke:#181818;stroke-width:1;stroke-dasharray:2,2;" width="9.582" x="250.5889" y="311.26"/><text fill="#000000" font-family="sans-serif" font-size="12" font-style="italic" lengthAdjust="spacing" textLength="7.582" x="251.5889" y="323.3987">E</text><line style="stroke:#181818;stroke-width:0.5;" x1="8" x2="256.1709" y1="346.26" y2="346.26"/><line style="stroke:#181818;stroke-width:0.5;" x1="8" x2="256.1709" y1="354.26" y2="354.26"/><text fill="#000000" font-family="sans-serif" font-size="14" lengthAdjust="spacing" textLength="146.7129" x="13" y="371.2551">+numElements(): int</text><text fill="#000000" font-family="sans-serif" font-size="14" lengthAdjust="spacing" textLength="144.1221" x="13" y="387.552">+isEmpty(): boolean</text><text fill="#000000" font-family="sans-serif" font-size="14" lengthAdjust="spacing" textLength="123.6826" x="13" y="403.8489">+isFull(): boolean</text><text fill="#000000" font-family="sans-serif" font-size="14" lengthAdjust="spacing" textLength="238.1709" x="13" y="420.1457">+insert(element: E, pos: int): void</text><text fill="#000000" font-family="sans-serif" font-size="14" lengthAdjust="spacing" textLength="146.3027" x="13" y="436.4426">+remove(pos: int): E</text><text fill="#000000" font-family="sans-serif" font-size="14" lengthAdjust="spacing" textLength="115.8213" x="13" y="452.7395">+get(pos: int): E</text><text fill="#000000" font-family="sans-serif" font-size="14" lengthAdjust="spacing" textLength="172.6279" x="13" y="469.0364">+search(element: E): int</text></g><!--class StaticList--><g class="entity" data-qualified-name="StaticList" data-source-line="13" id="ent0003"><rect fill="#F1F1F1" height="227.2656" rx="2.5" ry="2.5" style="stroke:#181818;stroke-width:0.5;" width="250.1709" x="250" y="10"/><ellipse cx="332.7925" cy="26" fill="#ADD1B2" rx="11" ry="11" style="stroke:#181818;stroke-width:1;"/><path d="M335.7612,31.6406 Q335.1831,31.9375 334.5425,32.0781 Q333.9019,32.2344 333.1987,32.2344 Q330.6987,32.2344 329.3706,30.5938 Q328.0581,28.9375 328.0581,25.8125 Q328.0581,22.6875 329.3706,21.0313 Q330.6987,19.375 333.1987,19.375 Q333.9019,19.375 334.5425,19.5313 Q335.1987,19.6875 335.7612,19.9844 L335.7612,22.7031 Q335.1362,22.125 334.5425,21.8594 Q333.9487,21.5781 333.3237,21.5781 Q331.98,21.5781 331.2925,22.6563 Q330.605,23.7188 330.605,25.8125 Q330.605,27.9063 331.2925,28.9844 Q331.98,30.0469 333.3237,30.0469 Q333.9487,30.0469 334.5425,29.7813 Q335.1362,29.5 335.7612,28.9219 L335.7612,31.6406 Z " fill="#000000"/><text fill="#000000" font-family="sans-serif" font-size="14" lengthAdjust="spacing" textLength="64.5039" x="353.2925" y="30.8467">StaticList</text><rect fill="#FFFFFF" height="15.9688" style="stroke:#181818;stroke-width:1;stroke-dasharray:2,2;" width="9.582" x="493.5889" y="7"/><text fill="#000000" font-family="sans-serif" font-size="12" font-style="italic" lengthAdjust="spacing" textLength="7.582" x="494.5889" y="19.1387">E</text><line style="stroke:#181818;stroke-width:0.5;" x1="251" x2="499.1709" y1="42" y2="42"/><text fill="#000000" font-family="sans-serif" font-size="14" lengthAdjust="spacing" textLength="99.0117" x="256" y="58.9951">-elements: E[]</text><text fill="#000000" font-family="sans-serif" font-size="14" lengthAdjust="spacing" textLength="129.1104" x="256" y="75.292">-numElements: int</text><line style="stroke:#181818;stroke-width:0.5;" x1="251" x2="499.1709" y1="82.5938" y2="82.5938"/><text fill="#000000" font-family="sans-serif" font-size="14" lengthAdjust="spacing" textLength="173.8174" x="256" y="99.5889">+StaticList(maxSize: int)</text><text fill="#000000" font-family="sans-serif" font-size="14" lengthAdjust="spacing" textLength="146.7129" x="256" y="115.8857">+numElements(): int</text><text fill="#000000" font-family="sans-serif" font-size="14" lengthAdjust="spacing" textLength="144.1221" x="256" y="132.1826">+isEmpty(): boolean</text><text fill="#000000" font-family="sans-serif" font-size="14" lengthAdjust="spacing" textLength="123.6826" x="256" y="148.4795">+isFull(): boolean</text><text fill="#000000" font-family="sans-serif" font-size="14" lengthAdjust="spacing" textLength="238.1709" x="256" y="164.7764">+insert(element: E, pos: int): void</text><text fill="#000000" font-family="sans-serif" font-size="14" lengthAdjust="spacing" textLength="146.3027" x="256" y="181.0732">+remove(pos: int): E</text><text fill="#000000" font-family="sans-serif" font-size="14" lengthAdjust="spacing" textLength="115.8213" x="256" y="197.3701">+get(pos: int): E</text><text fill="#000000" font-family="sans-serif" font-size="14" lengthAdjust="spacing" textLength="172.6279" x="256" y="213.667">+search(element: E): int</text><text fill="#000000" font-family="sans-serif" font-size="14" lengthAdjust="spacing" textLength="129.4385" x="256" y="229.9639">+toString(): String</text></g><!--class RuntimeException--><g class="entity" data-qualified-name="RuntimeException" data-source-line="27" id="ent0004"><rect fill="#F1F1F1" height="48" rx="2.5" ry="2.5" style="stroke:#181818;stroke-width:0.5;" width="160.249" x="397.96" y="553.34"/><ellipse cx="412.96" cy="569.34" fill="#ADD1B2" rx="11" ry="11" style="stroke:#181818;stroke-width:1;"/><path d="M415.9288,574.9806 Q415.3506,575.2775 414.71,575.4181 Q414.0694,575.5744 413.3663,575.5744 Q410.8663,575.5744 409.5381,573.9338 Q408.2256,572.2775 408.2256,569.1525 Q408.2256,566.0275 409.5381,564.3713 Q410.8663,562.715 413.3663,562.715 Q414.0694,562.715 414.71,562.8713 Q415.3663,563.0275 415.9288,563.3244 L415.9288,566.0431 Q415.3038,565.465 414.71,565.1994 Q414.1163,564.9181 413.4913,564.9181 Q412.1475,564.9181 411.46,565.9963 Q410.7725,567.0588 410.7725,569.1525 Q410.7725,571.2463 411.46,572.3244 Q412.1475,573.3869 413.4913,573.3869 Q414.1163,573.3869 414.71,573.1213 Q415.3038,572.84 415.9288,572.2619 L415.9288,574.9806 Z " fill="#000000"/><text fill="#000000" font-family="sans-serif" font-size="14" lengthAdjust="spacing" textLength="128.249" x="426.96" y="574.1867">RuntimeException</text><line style="stroke:#181818;stroke-width:0.5;" x1="398.96" x2="557.209" y1="585.34" y2="585.34"/><line style="stroke:#181818;stroke-width:0.5;" x1="398.96" x2="557.209" y1="593.34" y2="593.34"/></g><!--class OverflowException--><g class="entity" data-qualified-name="OverflowException" data-source-line="30" id="ent0005"><rect fill="#F1F1F1" height="64.2969" rx="2.5" ry="2.5" style="stroke:#181818;stroke-width:0.5;" width="166.3076" x="291.93" y="363.15"/><ellipse cx="308.1244" cy="379.15" fill="#ADD1B2" rx="11" ry="11" style="stroke:#181818;stroke-width:1;"/><path d="M311.0932,384.7906 Q310.5151,385.0875 309.8744,385.2281 Q309.2338,385.3844 308.5307,385.3844 Q306.0307,385.3844 304.7026,383.7438 Q303.3901,382.0875 303.3901,378.9625 Q303.3901,375.8375 304.7026,374.1813 Q306.0307,372.525 308.5307,372.525 Q309.2338,372.525 309.8744,372.6813 Q310.5307,372.8375 311.0932,373.1344 L311.0932,375.8531 Q310.4682,375.275 309.8744,375.0094 Q309.2807,374.7281 308.6557,374.7281 Q307.3119,374.7281 306.6244,375.8063 Q305.9369,376.8688 305.9369,378.9625 Q305.9369,381.0563 306.6244,382.1344 Q307.3119,383.1969 308.6557,383.1969 Q309.2807,383.1969 309.8744,382.9313 Q310.4682,382.65 311.0932,382.0719 L311.0932,384.7906 Z " fill="#000000"/><text fill="#000000" font-family="sans-serif" font-size="14" lengthAdjust="spacing" textLength="131.6533" x="322.3899" y="383.9967">OverflowException</text><line style="stroke:#181818;stroke-width:0.5;" x1="292.93" x2="457.2376" y1="395.15" y2="395.15"/><line style="stroke:#181818;stroke-width:0.5;" x1="292.93" x2="457.2376" y1="403.15" y2="403.15"/><text fill="#000000" font-family="sans-serif" font-size="14" lengthAdjust="spacing" textLength="154.3076" x="297.93" y="420.1451">+OverflowException()</text></g><!--class UnderflowException--><g class="entity" data-qualified-name="UnderflowException" data-source-line="34" id="ent0006"><rect fill="#F1F1F1" height="64.2969" rx="2.5" ry="2.5" style="stroke:#181818;stroke-width:0.5;" width="175.0098" x="493.58" y="363.15"/><ellipse cx="509.7744" cy="379.15" fill="#ADD1B2" rx="11" ry="11" style="stroke:#181818;stroke-width:1;"/><path d="M512.7432,384.7906 Q512.1651,385.0875 511.5244,385.2281 Q510.8838,385.3844 510.1807,385.3844 Q507.6807,385.3844 506.3526,383.7438 Q505.0401,382.0875 505.0401,378.9625 Q505.0401,375.8375 506.3526,374.1813 Q507.6807,372.525 510.1807,372.525 Q510.8838,372.525 511.5244,372.6813 Q512.1807,372.8375 512.7432,373.1344 L512.7432,375.8531 Q512.1182,375.275 511.5244,375.0094 Q510.9307,374.7281 510.3057,374.7281 Q508.9619,374.7281 508.2744,375.8063 Q507.5869,376.8688 507.5869,378.9625 Q507.5869,381.0563 508.2744,382.1344 Q508.9619,383.1969 510.3057,383.1969 Q510.9307,383.1969 511.5244,382.9313 Q512.1182,382.65 512.7432,382.0719 L512.7432,384.7906 Z " fill="#000000"/><text fill="#000000" font-family="sans-serif" font-size="14" lengthAdjust="spacing" textLength="140.3555" x="524.0399" y="383.9967">UnderflowException</text><line style="stroke:#181818;stroke-width:0.5;" x1="494.58" x2="667.5898" y1="395.15" y2="395.15"/><line style="stroke:#181818;stroke-width:0.5;" x1="494.58" x2="667.5898" y1="403.15" y2="403.15"/><text fill="#000000" font-family="sans-serif" font-size="14" lengthAdjust="spacing" textLength="163.0098" x="499.58" y="420.1451">+UnderflowException()</text></g><!--link StaticList to List--><g class="link" data-entity-1="ent0003" data-entity-2="ent0002" data-link-type="extension" data-source-line="39" id="lnk7"><path codeLine="39" d="M273.44,237.43 C250.29,263.12 238.1981,276.5368 216.5581,300.5568" fill="none" id="StaticList-to-List" style="stroke:#181818;stroke-width:1;stroke-dasharray:7,7;"/><polygon fill="none" points="204.51,313.93,221.0159,304.5728,212.1004,296.5408,204.51,313.93" style="stroke:#181818;stroke-width:1;"/><text fill="#000000" font-family="sans-serif" font-size="13" lengthAdjust="spacing" textLength="76.9082" x="248.09" y="280.3269">implements</text></g><!--link OverflowException to RuntimeException--><g class="link" data-entity-1="ent0005" data-entity-2="ent0004" data-link-type="extension" data-source-line="40" id="lnk8"><path codeLine="40" d="M393.03,427.66 C413.49,463.43 437.5321,505.4458 455.8321,537.4358" fill="none" id="OverflowException-to-RuntimeException" style="stroke:#181818;stroke-width:1;"/><polygon fill="none" points="464.77,553.06,461.0402,534.4565,450.6241,540.4151,464.77,553.06" style="stroke:#181818;stroke-width:1;"/><text fill="#000000" font-family="sans-serif" font-size="13" lengthAdjust="spacing" textLength="52.0508" x="449.09" y="519.4069">extends</text></g><!--link UnderflowException to RuntimeException--><g class="link" data-entity-1="ent0006" data-entity-2="ent0004" data-link-type="extension" data-source-line="41" id="lnk9"><path codeLine="41" d="M563.87,427.79 C549.67,453.6 528.87,491.01 510.09,523.34 C504.42,533.1 507.352,528.3841 501.772,537.5741" fill="none" id="UnderflowException-to-RuntimeException" style="stroke:#181818;stroke-width:1;"/><polygon fill="none" points="492.43,552.96,506.9007,540.6881,496.6434,534.4601,492.43,552.96" style="stroke:#181818;stroke-width:1;"/><text fill="#000000" font-family="sans-serif" font-size="13" lengthAdjust="spacing" textLength="52.0508" x="519.09" y="519.4069">extends</text></g><!--link StaticList to OverflowException--><g class="link" data-entity-1="ent0003" data-entity-2="ent0005" data-link-type="dependency" data-source-line="44" id="lnk10"><path codeLine="44" d="M375.09,237.43 C375.09,282.9 375.09,325.79 375.09,356.69" fill="none" id="StaticList-to-OverflowException" style="stroke:#181818;stroke-width:1;stroke-dasharray:7,7;"/><polygon fill="#181818" points="375.09,362.69,379.09,353.69,375.09,357.69,371.09,353.69,375.09,362.69" style="stroke:#181818;stroke-width:1;"/><text fill="#000000" font-family="sans-serif" font-size="13" lengthAdjust="spacing" textLength="44.04" x="376.09" y="280.3269">throws</text></g><!--link StaticList to UnderflowException--><g class="link" data-entity-1="ent0003" data-entity-2="ent0006" data-link-type="dependency" data-source-line="45" id="lnk11"><path codeLine="45" d="M461.25,237.43 C495.98,282.9 529.6982,327.0217 553.2982,357.9217" fill="none" id="StaticList-to-UnderflowException" style="stroke:#181818;stroke-width:1;stroke-dasharray:7,7;"/><polygon fill="#181818" points="556.94,362.69,554.6561,353.1096,553.9051,358.7164,548.2984,357.9654,556.94,362.69" style="stroke:#181818;stroke-width:1;"/><text fill="#000000" font-family="sans-serif" font-size="13" lengthAdjust="spacing" textLength="44.04" x="498.09" y="280.3269">throws</text></g><?plantuml-src tL9DIyD04BtlhvYRAThYEKX1C88W22sUnCEw6Tl5_GYPILk_Va_1kxyWVynD4vlKHBoxfzrvRnxlpGuzQPV9N5fGHXATC-VweM2yKjxDzGl2gH3QCUQFKY5SQ-ApP0gl0i8v1bVOnA15nnIDOWZ41j2Ks8oVg-A3zmQbsmENXJ43TKUOSuIrMWp92MIUTfA1k_8wROWvMh_2g0Cc3R907YeJobmjEygDqNSXTf5XpfArEemsXeOVv9Ax-wRMYTiDsmf4LcwggTKU_i6GQfJzFAo5MrIEwbixlLdXM5jCDWeprjw50UwncrNO6-FNNR1Mx27Hg6sxTUblVNseRZo26HgfmbjM0Jo9zbDWCdcRxbONGYYRDNyX-kx6uq3i1Oe1Dumk9J5WxA-MuEm2it0jFvpIaY15ACX3PAGhjxNPgeQXjzoMdqYZG-lJWId6mClSh-adSy3VD_KB?></g></svg>